<?xml version="1.0" encoding="utf-8"?>
<!-- Generator: Adobe Illustrator 24.0.1, SVG Export Plug-In . SVG Version: 6.00 Build 0)  -->
<svg version="1.1" xmlns="http://www.w3.org/2000/svg" xmlns:xlink="http://www.w3.org/1999/xlink" x="0px" y="0px"
	 viewBox="0 0 198.94 198.94" style="enable-background:new 0 0 198.94 198.94;" xml:space="preserve">
<style type="text/css">
	.st0{clip-path:url(#SVGID_2_);}
	.st1{opacity:0.25;}
	.st2{opacity:0.5;fill:none;stroke:#000000;stroke-width:10;stroke-linecap:round;stroke-miterlimit:10;}
	.st3{fill:none;stroke:#FFFFFF;stroke-width:10;stroke-linecap:round;stroke-miterlimit:10;}
	.st4{display:none;fill:#FFFFFF;}
	.st5{fill:#FFFFFF;}
	.st6{display:none;}
</style>
<g id="Layer_1">
	<g>
		<g>
			<path class="st5" d="M74.56,99.47V63.75c0-3.37,3.65-5.48,6.57-3.79l30.93,17.86l30.93,17.86c2.92,1.69,2.92,5.9,0,7.58
				l-30.93,17.86l-30.93,17.86c-2.92,1.69-6.57-0.42-6.57-3.79V99.47z"/>
		</g>
		<g>
			<path class="st5" d="M99.47,198.94C44.62,198.94,0,154.32,0,99.47S44.62,0,99.47,0s99.47,44.62,99.47,99.47
				S154.32,198.94,99.47,198.94z M99.47,6C47.93,6,6,47.93,6,99.47s41.93,93.47,93.47,93.47s93.47-41.93,93.47-93.47
				S151.01,6,99.47,6z"/>
		</g>
	</g>
</g>
<g id="Layer_2" class="st6">
</g>
</svg>
